<svg width="116" height="154" viewBox="0 0 116 154" fill="none" xmlns="http://www.w3.org/2000/svg">
<path d="M29.125 72.1875C29.125 69.6348 30.1391 67.1866 31.9441 65.3816C33.7491 63.5766 36.1973 62.5625 38.75 62.5625H48.375C50.9277 62.5625 53.3759 63.5766 55.1809 65.3816C56.9859 67.1866 58 69.6348 58 72.1875V81.2157L61.85 96.6061C62.3297 98.5317 62.2024 100.559 61.4857 102.409C60.7689 104.26 59.4976 105.843 57.846 106.943L48.8948 112.911C47.3131 113.966 45.4543 114.529 43.5529 114.529C41.6515 114.529 39.7927 113.966 38.211 112.911L29.2694 106.943C27.6195 105.842 26.3502 104.258 25.6352 102.407C24.9202 100.557 24.7944 98.5308 25.275 96.6061L29.125 81.2157V72.1875ZM48.375 72.1875H38.75V81.2157C38.7499 82.0043 38.6529 82.7898 38.4613 83.5546L34.6113 98.9354L43.5625 104.903L52.5041 98.9354L48.6541 83.5546C48.4657 82.7894 48.3719 82.0039 48.375 81.2157V72.1875Z" fill="#0094FF"/>
<path d="M115.75 43.3125V134.75C115.75 139.855 113.722 144.752 110.112 148.362C106.502 151.972 101.605 154 96.5 154H19.5C14.3946 154 9.49827 151.972 5.88819 148.362C2.27812 144.752 0.25 139.855 0.25 134.75V19.25C0.25 14.1446 2.27812 9.24827 5.88819 5.63819C9.49827 2.02812 14.3946 0 19.5 0L72.4375 0L115.75 43.3125ZM86.875 43.3125C83.0459 43.3125 79.3737 41.7914 76.6661 39.0839C73.9586 36.3763 72.4375 32.7041 72.4375 28.875V9.625H53.1875V19.25H43.5625V28.875H53.1875V38.5H43.5625V48.125H53.1875V57.75H38.75V48.125H29.125V38.5H38.75V28.875H29.125V19.25H38.75V9.625H19.5C16.9473 9.625 14.4991 10.6391 12.6941 12.4441C10.8891 14.2491 9.875 16.6973 9.875 19.25V134.75C9.875 137.303 10.8891 139.751 12.6941 141.556C14.4991 143.361 16.9473 144.375 19.5 144.375H96.5C99.0527 144.375 101.501 143.361 103.306 141.556C105.111 139.751 106.125 137.303 106.125 134.75V43.3125H86.875Z" fill="#0094FF"/>
</svg>
