<svg width="116" height="154" viewBox="0 0 116 154" fill="none" xmlns="http://www.w3.org/2000/svg">
<path d="M0 19.25C0 14.1446 1.52109 9.24827 4.22865 5.63819C6.9362 2.02812 10.6084 0 14.4375 0L72.1875 0C76.0166 0 79.6888 2.02812 82.3964 5.63819C85.1039 9.24827 86.625 14.1446 86.625 19.25V38.5H101.062C104.892 38.5 108.564 40.5281 111.271 44.1382C113.979 47.7483 115.5 52.6446 115.5 57.75V134.75C115.5 139.855 113.979 144.752 111.271 148.362C108.564 151.972 104.892 154 101.062 154H43.3125C39.4834 154 35.8112 151.972 33.1036 148.362C30.3961 144.752 28.875 139.855 28.875 134.75V115.5H14.4375C10.6084 115.5 6.9362 113.472 4.22865 109.862C1.52109 106.252 0 101.355 0 96.25V19.25Z" fill="#0094FF"/>
</svg>
