<svg width="116" height="154" viewBox="0 0 116 154" fill="none" xmlns="http://www.w3.org/2000/svg">
<g clip-path="url(#clip0_3_24)">
<path d="M101.062 9.625C102.977 9.625 104.813 10.6391 106.167 12.4441C107.521 14.2491 108.281 16.6973 108.281 19.25V134.75C108.281 137.303 107.521 139.751 106.167 141.556C104.813 143.361 102.977 144.375 101.062 144.375H14.4375C12.523 144.375 10.6869 143.361 9.33307 141.556C7.97929 139.751 7.21875 137.303 7.21875 134.75V19.25C7.21875 16.6973 7.97929 14.2491 9.33307 12.4441C10.6869 10.6391 12.523 9.625 14.4375 9.625H101.062ZM14.4375 0C10.6084 0 6.9362 2.02812 4.22865 5.63819C1.52109 9.24827 0 14.1446 0 19.25L0 134.75C0 139.855 1.52109 144.752 4.22865 148.362C6.9362 151.972 10.6084 154 14.4375 154H101.062C104.892 154 108.564 151.972 111.271 148.362C113.979 144.752 115.5 139.855 115.5 134.75V19.25C115.5 14.1446 113.979 9.24827 111.271 5.63819C108.564 2.02812 104.892 0 101.062 0L14.4375 0Z" fill="#0094FF"/>
<path d="M43.3125 110.688C43.3125 109.411 43.6928 108.187 44.3697 107.285C45.0466 106.382 45.9646 105.875 46.9219 105.875H68.5781C69.5354 105.875 70.4535 106.382 71.1303 107.285C71.8072 108.187 72.1875 109.411 72.1875 110.688C72.1875 111.964 71.8072 113.188 71.1303 114.09C70.4535 114.993 69.5354 115.5 68.5781 115.5H46.9219C45.9646 115.5 45.0466 114.993 44.3697 114.09C43.6928 113.188 43.3125 111.964 43.3125 110.688ZM28.875 81.8125C28.875 80.5361 29.2553 79.3121 29.9322 78.4095C30.6091 77.507 31.5271 77 32.4844 77H83.0156C83.9729 77 84.891 77.507 85.5678 78.4095C86.2447 79.3121 86.625 80.5361 86.625 81.8125C86.625 83.0889 86.2447 84.3129 85.5678 85.2155C84.891 86.118 83.9729 86.625 83.0156 86.625H32.4844C31.5271 86.625 30.6091 86.118 29.9322 85.2155C29.2553 84.3129 28.875 83.0889 28.875 81.8125ZM14.4375 52.9375C14.4375 51.6611 14.8178 50.4371 15.4947 49.5345C16.1716 48.632 17.0896 48.125 18.0469 48.125H97.4531C98.4104 48.125 99.3285 48.632 100.005 49.5345C100.682 50.4371 101.062 51.6611 101.062 52.9375C101.062 54.2139 100.682 55.4379 100.005 56.3405C99.3285 57.243 98.4104 57.75 97.4531 57.75H18.0469C17.0896 57.75 16.1716 57.243 15.4947 56.3405C14.8178 55.4379 14.4375 54.2139 14.4375 52.9375Z" fill="#0094FF"/>
</g>
<defs>
<clipPath id="clip0_3_24">
<rect width="115.5" height="154" fill="white"/>
</clipPath>
</defs>
</svg>
