<svg width="116" height="155" viewBox="0 0 116 155" fill="none" xmlns="http://www.w3.org/2000/svg">
<path d="M16.4999 154.043C12.1239 154.032 7.93244 151.992 4.84766 148.374C1.76289 144.756 0.0374826 139.855 0.0510118 134.75L0.357083 19.2499C0.370612 14.1445 2.12197 9.25286 5.22587 5.65099C8.32978 2.04913 12.532 0.0321355 16.908 0.0437319L99.4077 0.262354C103.784 0.27395 107.975 2.31319 111.06 5.93145C114.145 9.54971 115.87 14.4506 115.857 19.556L115.551 135.056C115.537 140.161 113.786 145.053 110.682 148.655C107.578 152.256 103.376 154.273 98.9997 154.262L16.4999 154.043ZM8.46677 72.2091L107.466 72.4715L107.607 19.5341C107.613 16.9814 106.751 14.531 105.208 12.7219C103.666 10.9127 101.57 9.89312 99.3822 9.88732L16.8825 9.6687C14.6945 9.6629 12.5934 10.6714 11.0414 12.4723C9.4895 14.2733 8.61382 16.7191 8.60705 19.2718L8.46677 72.2091ZM8.44127 81.8341L8.30098 134.771C8.29422 137.324 9.15692 139.775 10.6993 141.584C12.2417 143.393 14.3374 144.412 16.5254 144.418L99.0252 144.637C101.213 144.643 103.314 143.634 104.866 141.833C106.418 140.032 107.294 137.586 107.301 135.034L107.441 82.0964L8.44127 81.8341Z" fill="#0094FF"/>
</svg>
